# xmcd
#
# Track frame offsets: 
#        150
#        988
#        11533
#        12290
#        31048
#        31933
#        47285
#        48905
#        71825
#        72392
#        88438
#        90515
#        106513
#        107728
#        120493
#        122083
#        135043
#        152975
#        154513
#        166198
#        166655
#        180268
#        182248
#        201065
#        214055
#        215585
#        239810
#        243118
#
# Disc length: 3467 seconds
#
# Revision: 1
# Processed by: cddbd v1.5.2PL0 Copyright (c) Steve Scherf et al.
# Submitted via: ExactAudioCopyFreeDBPlugin 1.0
#
DISCID=5a0d891c
DTITLE=Virgis Stakenas and Crazy Crow - Tikro garso koncertas "Tavo Zona
DTITLE="
DYEAR=2002
DGENRE=Country
TTITLE0=Intro
TTITLE1=Kelias bega greit
TTITLE2=Intro
TTITLE3=Rytiniame autobuse
TTITLE4=Intro
TTITLE5=Stiliaga
TTITLE6=Intro
TTITLE7=Pelenu spalvos akiu moteris
TTITLE8=Intro
TTITLE9=Pikciurna
TTITLE10=Intro
TTITLE11=Zinau
TTITLE12=Intro
TTITLE13=Laukiniai sapnai
TTITLE14=Intro
TTITLE15=Avis
TTITLE16=Nepripratau
TTITLE17=Intro
TTITLE18=Broliai
TTITLE19=Intro
TTITLE20=Prima balerina
TTITLE21=Intro
TTITLE22=Seni draugai
TTITLE23=Snaudzia malunas prie kelio
TTITLE24=Intro
TTITLE25=Uz musu jaunas dieneles
TTITLE26=Intro
TTITLE27=Kelelis tolimas
EXTD=
EXTT0=
EXTT1=
EXTT2=
EXTT3=
EXTT4=
EXTT5=
EXTT6=
EXTT7=
EXTT8=
EXTT9=
EXTT10=
EXTT11=
EXTT12=
EXTT13=
EXTT14=
EXTT15=
EXTT16=
EXTT17=
EXTT18=
EXTT19=
EXTT20=
EXTT21=
EXTT22=
EXTT23=
EXTT24=
EXTT25=
EXTT26=
EXTT27=
PLAYORDER=
